<svg id="svg" version="1.1" xmlns="http://www.w3.org/2000/svg" xmlns:xlink="http://www.w3.org/1999/xlink" width="400" height="400" viewBox="0, 0, 400,400"><g id="svgg"><path id="path0" d="M0.000 200.000 L 0.000 400.000 200.000 400.000 L 400.000 400.000 400.000 200.000 L 400.000 0.000 200.000 0.000 L 0.000 0.000 0.000 200.000 M341.800 111.961 L 343.000 112.253 342.995 116.626 C 342.993 119.032,342.903 122.889,342.795 125.198 L 342.600 129.395 345.600 129.706 C 350.317 130.195,350.252 130.244,350.496 125.969 C 350.793 120.762,350.182 121.013,360.347 121.930 C 365.012 122.351,368.936 122.803,369.067 122.934 C 369.198 123.065,369.079 125.780,368.803 128.967 C 368.234 135.525,368.310 136.000,369.932 136.000 C 370.568 136.000,371.923 136.114,372.944 136.254 L 374.800 136.509 374.800 139.388 C 374.800 140.971,374.593 143.296,374.341 144.554 C 374.043 146.034,374.018 146.978,374.270 147.230 C 374.672 147.632,381.662 148.800,383.665 148.800 C 384.602 148.800,384.800 148.971,384.800 149.776 C 384.800 151.061,385.232 151.279,388.150 151.470 C 391.651 151.699,393.470 152.261,393.713 153.188 C 393.947 154.084,393.329 165.208,392.879 168.200 L 392.577 170.200 388.789 170.096 C 386.705 170.039,383.290 169.807,381.200 169.582 C 375.542 168.971,367.233 168.466,366.403 168.683 C 365.427 168.939,365.315 169.505,364.809 176.758 C 363.632 193.625,363.487 194.719,362.390 195.125 C 361.030 195.629,345.593 193.897,345.223 193.200 C 345.049 192.870,345.050 191.250,345.226 189.600 C 345.911 183.190,346.844 168.370,346.610 167.631 C 346.417 167.022,345.866 166.801,344.081 166.613 C 342.827 166.481,340.450 166.207,338.800 166.005 C 337.150 165.802,332.498 165.411,328.463 165.135 C 324.240 164.846,320.850 164.432,320.477 164.159 C 319.796 163.661,320.664 151.317,321.651 147.481 L 322.041 145.962 325.410 146.235 L 328.779 146.508 329.189 145.428 C 329.879 143.613,329.710 140.484,328.900 140.073 C 328.515 139.878,325.500 139.486,322.200 139.203 C 318.900 138.919,315.480 138.570,314.600 138.426 L 313.000 138.166 313.099 133.198 C 313.229 126.660,312.761 127.017,320.447 127.603 C 323.831 127.861,327.496 128.011,328.592 127.936 L 330.584 127.800 331.057 123.600 C 331.316 121.290,331.651 117.821,331.801 115.892 C 331.955 113.905,332.297 112.160,332.591 111.867 C 333.140 111.317,339.416 111.382,341.800 111.961 M341.402 141.700 C 340.114 147.136,340.204 147.350,344.019 147.906 C 347.943 148.478,348.277 148.358,348.592 146.269 C 348.730 145.351,348.923 144.150,349.021 143.600 C 349.294 142.065,348.663 141.493,346.335 141.162 C 342.458 140.611,341.639 140.700,341.402 141.700 M137.149 175.167 C 140.120 177.073,141.983 180.610,142.006 184.384 C 142.021 186.810,142.634 186.736,145.487 183.964 C 158.040 171.765,174.645 170.217,188.600 179.943 C 195.196 184.540,202.756 196.670,202.792 202.713 C 202.803 204.450,203.541 204.659,205.661 203.528 C 208.518 202.003,215.269 202.162,218.800 203.837 C 227.838 208.125,231.881 219.594,228.730 232.000 C 225.485 244.775,211.282 250.139,201.550 242.265 C 198.413 239.727,198.414 239.726,198.406 248.427 C 198.398 258.136,197.667 260.574,194.477 261.530 C 191.075 262.549,188.697 260.717,188.194 256.690 C 187.842 253.869,187.551 253.662,185.677 254.898 C 173.574 262.875,155.761 260.193,145.044 248.778 C 141.905 245.434,142.015 244.904,141.992 263.400 C 141.971 279.972,141.776 282.439,140.224 285.698 C 139.172 287.907,137.078 289.587,135.286 289.661 C 122.244 290.197,122.391 290.480,122.040 264.200 L 121.800 246.200 117.000 245.946 C 103.380 245.224,96.000 237.458,96.000 223.847 C 96.000 210.171,105.340 201.422,119.238 202.079 L 121.800 202.200 122.037 191.600 C 122.282 180.680,122.467 179.358,124.056 177.210 C 126.818 173.475,133.006 172.509,137.149 175.167 M336.583 178.878 C 336.288 180.218,336.782 180.783,338.257 180.794 C 339.097 180.800,339.778 181.688,339.306 182.161 C 339.174 182.292,338.503 182.400,337.813 182.400 C 336.390 182.400,335.600 183.012,335.600 184.113 C 335.600 185.194,334.628 184.730,334.460 183.569 C 334.290 182.399,333.758 182.014,332.300 182.006 C 330.441 181.996,330.801 180.481,332.700 180.324 C 334.093 180.209,334.209 180.100,334.333 178.803 C 334.486 177.184,335.050 176.691,336.104 177.256 C 336.690 177.569,336.793 177.919,336.583 178.878 M245.763 181.010 C 249.381 182.522,249.851 187.520,246.638 190.297 C 245.877 190.956,245.600 191.581,245.600 192.644 C 245.600 197.409,238.256 198.897,235.639 194.662 C 234.164 192.276,234.573 190.263,237.033 187.803 C 237.663 187.174,238.001 186.376,238.003 185.518 C 238.010 181.867,242.112 179.485,245.763 181.010 M37.629 187.751 C 41.075 189.003,42.308 189.661,44.000 191.153 C 44.770 191.832,45.535 192.390,45.700 192.394 C 45.865 192.397,46.000 192.642,46.000 192.938 C 46.000 193.234,46.349 193.792,46.776 194.178 C 49.096 196.278,49.476 201.804,47.440 203.840 C 44.729 206.551,41.440 205.541,39.326 201.350 C 36.652 196.048,33.402 194.231,27.552 194.764 C 21.449 195.321,18.600 197.458,18.600 201.481 C 18.600 205.221,21.671 207.275,30.200 209.238 C 46.085 212.895,51.697 217.569,51.769 227.200 C 51.811 232.911,50.879 235.605,47.543 239.403 C 41.061 246.786,23.691 248.254,14.252 242.216 C 5.284 236.479,3.272 224.023,11.293 223.902 C 13.977 223.862,15.130 224.902,17.314 229.331 C 20.264 235.313,22.165 236.663,28.200 237.063 C 36.134 237.590,41.772 232.719,40.249 226.653 C 39.627 224.176,33.551 220.428,30.119 220.406 C 29.634 220.403,28.824 220.239,28.319 220.042 C 27.813 219.844,25.600 219.191,23.400 218.589 C 10.515 215.065,4.919 207.646,7.985 198.154 C 9.932 192.130,13.334 189.347,21.608 187.012 C 25.001 186.054,34.115 186.475,37.629 187.751 M64.194 188.166 C 65.821 189.891,66.000 191.130,66.000 200.656 C 66.000 208.837,66.068 209.006,68.393 206.607 C 75.261 199.521,88.230 201.548,92.339 210.350 L 93.389 212.600 93.394 227.437 C 93.401 243.948,93.443 243.666,90.721 245.196 C 87.872 246.797,84.642 245.690,83.416 242.692 C 82.908 241.448,82.800 239.061,82.800 229.063 C 82.800 215.627,82.577 214.093,80.346 212.216 C 76.901 209.317,71.107 210.334,68.193 214.349 C 66.402 216.817,66.002 219.825,65.990 230.916 C 65.977 243.192,65.278 245.200,61.013 245.200 C 57.868 245.200,57.072 244.536,55.803 240.850 C 55.072 238.728,54.880 192.645,55.600 192.200 C 55.820 192.064,56.000 191.676,56.000 191.337 C 56.000 187.363,61.448 185.255,64.194 188.166 M162.200 189.457 C 161.760 189.540,160.458 189.798,159.307 190.031 C 140.651 193.803,136.683 228.512,153.595 239.996 C 170.217 251.285,188.221 230.151,182.043 206.603 C 179.115 195.442,170.395 187.907,162.200 189.457 M243.294 203.119 C 245.574 204.466,245.600 204.697,245.600 223.973 C 245.600 238.432,245.496 241.875,245.024 243.004 C 243.285 247.165,237.199 246.856,235.348 242.513 C 234.531 240.594,234.547 207.502,235.367 205.541 C 236.737 202.261,240.100 201.233,243.294 203.119 M276.643 205.100 C 278.416 207.436,277.267 211.816,273.205 218.200 C 271.069 221.559,267.512 227.295,266.600 228.855 C 266.380 229.231,265.345 230.926,264.300 232.620 C 263.255 234.315,262.400 235.859,262.400 236.051 C 262.400 236.243,265.708 236.400,269.751 236.400 C 278.403 236.400,278.200 236.304,278.200 240.400 C 278.200 244.673,279.175 244.400,263.931 244.400 L 250.759 244.400 250.180 243.013 C 249.139 240.522,249.421 238.045,251.050 235.376 C 251.848 234.069,253.016 232.141,253.645 231.091 C 254.275 230.041,256.052 227.201,257.595 224.780 C 259.138 222.359,260.400 220.300,260.400 220.203 C 260.400 220.107,261.407 218.467,262.637 216.560 C 265.394 212.286,265.546 212.414,257.723 212.406 C 250.551 212.399,250.400 212.313,250.400 208.242 C 250.400 204.214,249.746 204.400,263.918 204.400 C 275.062 204.400,276.158 204.460,276.643 205.100 M310.195 205.194 C 312.251 207.466,310.678 212.611,305.700 219.901 C 304.765 221.271,304.000 222.465,304.000 222.555 C 304.000 222.645,302.195 225.626,299.988 229.179 C 297.782 232.732,296.083 235.810,296.212 236.020 C 296.347 236.237,299.512 236.400,303.610 236.400 C 311.882 236.400,311.764 236.342,311.764 240.400 C 311.764 241.610,311.541 243.005,311.268 243.500 L 310.772 244.400 297.848 244.400 C 282.710 244.400,283.500 244.628,283.525 240.262 C 283.541 237.484,283.804 236.843,286.993 231.800 C 287.967 230.260,289.138 228.370,289.596 227.600 C 290.053 226.830,290.946 225.390,291.580 224.400 C 292.214 223.410,293.437 221.430,294.299 220.000 C 295.160 218.570,296.470 216.442,297.210 215.272 C 298.975 212.478,298.844 212.414,291.314 212.406 C 284.205 212.399,284.400 212.520,284.400 208.106 C 284.400 204.169,283.590 204.400,297.418 204.400 C 308.939 204.400,309.508 204.435,310.195 205.194 M325.937 205.411 C 326.375 205.967,327.093 207.542,327.535 208.911 C 327.976 210.280,328.997 213.200,329.803 215.400 C 330.609 217.600,331.603 220.390,332.012 221.600 C 332.420 222.810,333.226 225.060,333.801 226.600 C 334.377 228.140,334.948 229.715,335.070 230.100 C 335.652 231.927,336.180 230.673,339.410 219.800 C 342.960 207.852,343.631 205.828,344.285 205.106 C 345.411 203.862,352.094 204.085,353.129 205.400 C 354.147 206.694,354.614 205.032,346.048 230.600 C 335.360 262.504,336.975 259.520,330.362 259.571 C 324.235 259.617,324.264 259.733,328.050 250.431 C 330.110 245.370,330.329 244.584,329.827 244.030 C 329.148 243.280,329.145 243.272,325.029 232.200 C 324.211 230.000,323.312 227.660,323.031 227.000 C 322.750 226.340,322.295 225.170,322.020 224.400 C 321.744 223.630,321.367 222.640,321.180 222.200 C 320.994 221.760,319.833 218.700,318.600 215.400 C 317.367 212.100,316.188 208.987,315.979 208.481 C 314.707 205.399,316.000 204.400,321.260 204.400 C 324.936 204.400,325.184 204.454,325.937 205.411 M114.544 210.716 C 103.872 214.254,104.458 235.204,115.292 237.499 C 117.310 237.926,120.510 237.539,121.457 236.752 C 122.537 235.857,122.222 211.931,121.122 211.244 C 120.133 210.626,115.851 210.283,114.544 210.716 M206.565 210.754 C 204.399 211.313,204.400 211.311,204.400 216.750 C 204.400 222.070,204.145 224.133,202.727 230.300 C 201.758 234.514,201.898 234.924,204.800 236.395 C 212.489 240.291,219.015 234.560,218.987 223.934 C 218.962 214.257,213.881 208.866,206.565 210.754 " stroke="none" fill="#fbfbfb" fill-rule="evenodd"></path><path id="path1" d="M334.911 177.131 C 334.666 177.283,334.405 178.035,334.333 178.803 C 334.209 180.100,334.093 180.209,332.700 180.324 C 330.801 180.481,330.441 181.996,332.300 182.006 C 333.758 182.014,334.290 182.399,334.460 183.569 C 334.628 184.730,335.600 185.194,335.600 184.113 C 335.600 183.012,336.390 182.400,337.813 182.400 C 338.503 182.400,339.174 182.292,339.306 182.161 C 339.778 181.688,339.097 180.800,338.257 180.794 C 336.782 180.783,336.288 180.218,336.583 178.878 C 336.867 177.586,335.866 176.541,334.911 177.131 M21.608 187.012 C 13.334 189.347,9.932 192.130,7.985 198.154 C 4.919 207.646,10.515 215.065,23.400 218.589 C 25.600 219.191,27.813 219.844,28.319 220.042 C 28.824 220.239,29.634 220.403,30.119 220.406 C 33.551 220.428,39.627 224.176,40.249 226.653 C 41.772 232.719,36.134 237.590,28.200 237.063 C 22.165 236.663,20.264 235.313,17.314 229.331 C 15.130 224.902,13.977 223.862,11.293 223.902 C 4.918 223.998,4.486 232.186,10.495 239.013 C 16.594 245.941,29.382 247.975,41.000 243.864 C 47.866 241.434,51.829 235.302,51.769 227.200 C 51.697 217.569,46.085 212.895,30.200 209.238 C 21.671 207.275,18.600 205.221,18.600 201.481 C 18.600 197.458,21.449 195.321,27.552 194.764 C 33.402 194.231,36.652 196.048,39.326 201.350 C 41.440 205.541,44.729 206.551,47.440 203.840 C 49.476 201.804,49.096 196.278,46.776 194.178 C 46.349 193.792,46.000 193.234,46.000 192.938 C 46.000 192.642,45.865 192.397,45.700 192.394 C 45.535 192.390,44.770 191.832,44.000 191.153 C 39.586 187.261,28.192 185.154,21.608 187.012 M207.200 202.952 C 203.127 204.588,203.200 204.538,203.200 205.664 C 203.200 206.263,203.031 206.857,202.825 206.984 C 202.273 207.326,201.205 209.600,201.597 209.600 C 201.782 209.600,202.018 209.375,202.121 209.100 C 202.242 208.777,202.431 208.884,202.654 209.400 C 203.618 211.631,204.071 211.972,205.139 211.272 C 207.140 209.961,211.880 210.353,214.212 212.023 C 220.310 216.389,220.998 229.091,215.455 234.969 C 212.370 238.240,205.655 238.179,202.647 234.853 L 201.895 234.021 200.750 234.836 C 199.676 235.600,198.523 235.572,199.005 234.792 C 199.124 234.599,198.877 234.255,198.454 234.029 C 197.776 233.666,197.652 233.793,197.398 235.109 C 197.127 236.510,197.088 236.543,196.751 235.654 C 196.482 234.947,196.179 234.764,195.547 234.930 C 194.425 235.223,194.695 232.743,196.066 230.158 C 196.848 228.685,196.916 228.278,196.498 227.608 C 195.839 226.553,195.879 222.955,196.594 219.000 C 197.453 214.245,197.406 213.600,196.200 213.600 C 195.181 213.600,194.941 213.028,195.554 212.061 C 196.068 211.249,197.382 211.681,197.529 212.710 C 197.710 213.979,198.400 213.397,198.400 211.976 C 198.400 211.190,198.198 210.800,197.791 210.800 C 197.457 210.800,196.482 210.336,195.625 209.769 C 194.431 208.979,193.671 208.769,192.366 208.869 C 190.727 208.995,190.650 208.949,190.260 207.600 C 189.485 204.921,189.246 211.057,189.324 231.606 C 189.396 250.383,189.360 251.496,188.651 252.578 C 186.889 255.268,188.636 260.786,191.501 261.577 C 194.620 262.438,196.739 261.101,197.761 257.627 C 198.458 255.256,198.695 239.744,198.008 241.444 C 197.643 242.348,196.561 242.947,195.963 242.577 C 195.744 242.442,195.750 242.068,195.976 241.645 C 196.184 241.256,196.472 240.048,196.617 238.960 C 196.825 237.389,197.082 236.886,197.862 236.518 C 199.112 235.928,199.494 236.681,198.909 238.585 C 198.001 241.545,205.472 245.757,211.600 245.741 C 225.256 245.706,233.130 231.593,228.552 215.357 C 225.986 206.255,214.947 199.842,207.200 202.952 M316.495 205.118 C 315.588 205.905,315.896 208.361,317.309 211.600 C 317.928 213.020,318.129 213.539,320.406 219.600 C 321.109 221.470,322.105 224.080,322.620 225.400 C 323.135 226.720,324.389 230.050,325.406 232.800 C 328.134 240.173,329.223 242.864,329.901 243.898 C 330.467 244.762,330.374 245.162,328.498 249.912 C 324.587 259.815,324.509 259.347,330.103 259.514 C 335.341 259.670,336.206 259.176,337.704 255.167 C 339.180 251.214,353.198 209.358,353.600 207.700 C 354.212 205.179,353.027 204.400,348.580 204.400 C 344.409 204.400,343.943 204.685,343.194 207.691 C 342.894 208.895,341.103 214.839,339.124 221.200 C 338.679 222.630,338.066 224.700,337.763 225.800 C 336.635 229.888,335.553 231.616,335.070 230.100 C 334.948 229.715,334.377 228.140,333.801 226.600 C 333.226 225.060,332.420 222.810,332.012 221.600 C 331.603 220.390,330.609 217.600,329.803 215.400 C 328.997 213.200,327.976 210.280,327.535 208.911 C 326.160 204.646,325.816 204.400,321.232 204.400 C 318.046 204.400,317.169 204.533,316.495 205.118 M7.200 229.280 C 7.200 230.210,7.080 230.440,6.760 230.120 C 6.518 229.878,6.441 229.302,6.587 228.840 C 6.969 227.637,7.200 227.803,7.200 229.280 " stroke="none" fill="#219470" fill-rule="evenodd"></path><path id="path2" d="M332.591 111.867 C 332.297 112.160,331.955 113.905,331.801 115.892 C 331.651 117.821,331.316 121.290,331.057 123.600 L 330.584 127.800 328.592 127.936 C 327.496 128.011,323.831 127.861,320.447 127.603 C 312.761 127.017,313.229 126.660,313.099 133.198 L 313.000 138.166 314.600 138.426 C 315.480 138.570,318.900 138.919,322.200 139.203 C 325.500 139.486,328.515 139.878,328.900 140.073 C 329.710 140.484,329.879 143.613,329.189 145.428 L 328.779 146.508 325.410 146.235 L 322.041 145.962 321.651 147.481 C 320.664 151.317,319.796 163.661,320.477 164.159 C 320.850 164.432,324.240 164.846,328.463 165.135 C 332.498 165.411,337.150 165.802,338.800 166.005 C 340.450 166.207,342.827 166.481,344.081 166.613 C 345.866 166.801,346.417 167.022,346.610 167.631 C 346.844 168.370,345.911 183.190,345.226 189.600 C 345.050 191.250,345.049 192.870,345.223 193.200 C 345.593 193.897,361.030 195.629,362.390 195.125 C 363.487 194.719,363.632 193.625,364.809 176.758 C 365.315 169.505,365.427 168.939,366.403 168.683 C 367.233 168.466,375.542 168.971,381.200 169.582 C 383.290 169.807,386.705 170.039,388.789 170.096 L 392.577 170.200 392.879 168.200 C 393.329 165.208,393.947 154.084,393.713 153.188 C 393.470 152.261,391.651 151.699,388.150 151.470 C 386.803 151.382,385.498 151.184,385.250 151.031 C 384.943 150.841,384.798 151.302,384.794 152.476 C 384.784 155.284,384.728 155.310,379.353 155.018 C 373.297 154.689,373.555 154.474,373.203 160.146 C 372.851 165.835,372.666 166.127,369.634 165.799 C 365.093 165.308,365.144 165.359,365.637 161.800 C 366.694 154.181,366.708 154.203,360.503 153.871 C 357.404 153.705,355.754 153.452,355.540 153.111 C 355.247 152.644,355.458 147.678,355.821 146.500 C 356.006 145.899,359.425 145.846,363.166 146.387 C 366.591 146.882,367.196 146.538,367.212 144.086 C 367.231 141.199,367.957 136.215,368.379 136.074 C 368.586 136.005,368.653 135.682,368.528 135.355 C 368.402 135.029,368.526 132.155,368.803 128.967 C 369.079 125.780,369.198 123.065,369.067 122.934 C 368.936 122.803,365.012 122.351,360.347 121.930 C 350.182 121.013,350.793 120.762,350.496 125.969 C 350.252 130.244,350.317 130.195,345.600 129.706 L 342.600 129.395 342.795 125.198 C 342.903 122.889,342.993 119.032,342.995 116.626 L 343.000 112.253 341.800 111.961 C 339.416 111.382,333.140 111.317,332.591 111.867 M346.335 141.162 C 348.663 141.493,349.294 142.065,349.021 143.600 C 348.923 144.150,348.730 145.351,348.592 146.269 C 348.277 148.358,347.943 148.478,344.019 147.906 C 340.464 147.388,340.376 147.290,340.877 144.400 C 341.579 140.346,341.390 140.459,346.335 141.162 M128.706 173.973 C 123.050 175.807,122.000 178.763,122.000 192.854 C 122.000 201.105,121.934 201.999,121.300 202.368 C 120.719 202.706,120.820 202.778,121.891 202.788 C 134.738 202.909,142.982 220.717,136.709 234.800 C 134.320 240.165,126.727 245.501,121.308 245.625 C 120.246 245.650,120.237 245.666,121.100 246.012 L 122.000 246.374 122.000 262.003 C 122.000 287.822,122.465 289.388,130.200 289.616 C 136.146 289.791,136.641 289.715,138.142 288.398 C 141.588 285.372,141.967 282.905,141.992 263.400 C 142.015 244.904,141.905 245.434,145.044 248.778 C 155.761 260.193,173.574 262.875,185.677 254.898 C 186.489 254.362,187.299 254.014,187.477 254.124 C 187.655 254.234,187.808 243.766,187.818 230.862 C 187.837 205.883,187.901 204.984,189.771 203.228 C 192.768 200.411,198.400 203.045,198.400 207.263 C 198.400 208.198,199.147 207.860,201.125 206.027 C 201.853 205.352,202.601 204.800,202.787 204.800 C 203.866 204.800,201.590 197.036,199.187 192.520 C 187.863 171.236,162.709 167.228,145.487 183.964 C 142.634 186.736,142.021 186.810,142.006 184.384 C 141.963 177.257,135.112 171.895,128.706 173.973 M236.663 188.165 C 234.470 190.687,234.209 192.349,235.639 194.662 C 238.167 198.753,245.600 197.423,245.600 192.880 C 245.600 192.212,245.716 191.336,245.859 190.933 C 246.071 190.333,246.020 190.291,245.579 190.700 C 243.931 192.229,238.400 189.783,238.400 187.525 C 238.400 186.502,237.971 186.660,236.663 188.165 M168.300 190.203 C 188.181 195.136,188.022 237.012,168.103 242.173 C 156.631 245.146,145.714 237.017,143.768 224.052 C 141.671 210.083,145.048 198.137,152.515 193.108 C 155.929 190.809,156.816 190.475,162.200 189.457 C 163.252 189.258,165.696 189.557,168.300 190.203 M116.100 202.287 C 116.705 202.378,117.695 202.378,118.300 202.287 C 118.905 202.195,118.410 202.120,117.200 202.120 C 115.990 202.120,115.495 202.195,116.100 202.287 M284.880 204.880 C 284.287 205.473,284.237 210.548,284.814 211.626 C 285.195 212.339,285.710 212.400,291.314 212.406 C 298.844 212.414,298.975 212.478,297.210 215.272 C 296.470 216.442,295.160 218.570,294.299 220.000 C 293.437 221.430,292.214 223.410,291.580 224.400 C 290.946 225.390,290.053 226.830,289.596 227.600 C 289.138 228.370,287.967 230.260,286.993 231.800 C 283.804 236.843,283.541 237.484,283.525 240.262 C 283.500 244.628,282.710 244.400,297.848 244.400 L 310.772 244.400 311.268 243.500 C 311.541 243.005,311.764 241.610,311.764 240.400 C 311.764 236.342,311.882 236.400,303.610 236.400 C 299.512 236.400,296.347 236.237,296.212 236.020 C 296.083 235.810,297.782 232.732,299.988 229.179 C 302.195 225.626,304.000 222.645,304.000 222.555 C 304.000 222.465,304.765 221.271,305.700 219.901 C 310.678 212.611,312.251 207.466,310.195 205.194 C 309.317 204.224,285.827 203.933,284.880 204.880 M250.566 205.745 C 250.451 206.044,250.414 207.349,250.484 208.645 L 250.612 211.000 250.806 208.099 C 251.001 205.188,250.954 204.733,250.566 205.745 M315.606 207.033 C 315.609 207.455,315.795 208.070,316.018 208.400 C 316.315 208.838,316.352 208.676,316.156 207.800 C 315.827 206.329,315.598 206.010,315.606 207.033 M121.300 211.306 C 122.203 212.057,122.390 235.838,121.500 236.755 C 121.225 237.039,121.683 236.872,122.518 236.385 C 129.917 232.070,129.839 215.802,122.400 211.713 C 121.410 211.169,120.915 210.986,121.300 211.306 M203.100 213.014 C 202.495 213.535,202.000 214.128,202.000 214.332 C 202.000 214.535,201.743 214.916,201.428 215.177 C 200.276 216.133,199.200 220.394,199.206 223.978 C 199.211 227.312,199.523 228.695,201.092 232.364 L 201.846 234.128 202.717 230.364 C 204.143 224.199,204.443 221.645,204.319 216.734 L 204.200 212.067 203.100 213.014 M262.455 216.828 C 260.190 220.387,259.620 221.765,261.724 218.595 C 263.647 215.697,264.891 213.600,264.687 213.600 C 264.590 213.600,263.585 215.053,262.455 216.828 M255.692 227.735 C 255.259 228.469,254.589 229.594,254.205 230.235 L 253.505 231.400 254.333 230.400 C 255.279 229.257,256.944 226.400,256.665 226.400 C 256.563 226.400,256.125 227.001,255.692 227.735 M251.406 234.688 L 250.704 235.800 251.630 234.911 C 252.139 234.422,252.455 233.922,252.332 233.799 C 252.209 233.676,251.792 234.076,251.406 234.688 M250.064 237.019 C 249.809 237.579,249.627 238.974,249.661 240.119 L 249.722 242.200 249.991 239.800 C 250.140 238.480,250.401 237.085,250.573 236.700 C 250.745 236.315,250.805 236.000,250.707 236.000 C 250.609 236.000,250.320 236.458,250.064 237.019 M326.044 255.244 C 325.798 255.951,325.666 256.600,325.752 256.685 C 325.838 256.771,326.109 256.262,326.356 255.556 C 326.602 254.849,326.734 254.200,326.648 254.115 C 326.562 254.029,326.291 254.538,326.044 255.244 " stroke="none" fill="#eaba23" fill-rule="evenodd"></path><path id="path3" d="M367.857 137.215 C 367.723 137.883,367.494 140.141,367.347 142.233 C 367.025 146.813,366.913 146.916,362.869 146.356 C 361.290 146.137,359.054 146.013,357.899 146.079 L 355.800 146.200 355.751 148.400 L 355.701 150.600 355.951 148.600 L 356.200 146.600 359.400 146.706 C 365.532 146.909,366.865 147.733,365.450 150.444 C 364.847 151.599,365.240 152.800,366.220 152.800 C 366.539 152.800,366.800 152.958,366.800 153.150 C 366.800 153.571,360.611 153.655,357.803 153.272 C 355.993 153.025,355.782 152.888,355.550 151.800 C 355.320 150.721,355.290 150.701,355.253 151.600 C 355.178 153.426,355.600 153.608,360.503 153.871 C 366.708 154.203,366.694 154.181,365.637 161.800 C 365.144 165.359,365.093 165.308,369.634 165.799 C 372.666 166.127,372.851 165.835,373.203 160.146 C 373.555 154.474,373.297 154.689,379.353 155.018 C 384.914 155.320,384.785 155.403,384.794 151.500 L 384.800 148.800 383.665 148.800 C 381.662 148.800,374.672 147.632,374.270 147.230 C 374.018 146.978,374.043 146.034,374.341 144.554 C 374.593 143.296,374.800 140.971,374.800 139.388 L 374.800 136.509 372.944 136.254 C 368.979 135.711,368.126 135.872,367.857 137.215 M367.467 163.335 C 367.659 164.520,367.580 164.800,367.052 164.800 C 366.542 164.800,366.400 164.391,366.400 162.920 C 366.400 160.726,367.087 160.993,367.467 163.335 M242.449 180.831 C 239.470 181.467,237.842 183.586,238.187 186.377 C 238.830 191.594,245.886 192.883,248.123 188.192 C 250.043 184.167,246.762 179.910,242.449 180.831 M248.011 184.021 C 248.712 185.330,248.448 187.103,247.377 188.278 C 246.381 189.372,246.362 189.376,246.624 188.439 C 246.953 187.263,246.939 184.669,246.599 183.596 C 246.278 182.586,247.428 182.932,248.011 184.021 M58.353 187.401 C 57.333 187.955,56.000 190.154,56.000 191.280 C 56.000 191.588,55.818 192.022,55.595 192.245 C 55.332 192.508,55.228 197.373,55.300 206.025 L 55.411 219.400 55.506 205.890 L 55.600 192.380 56.626 191.990 C 57.800 191.544,61.028 191.482,63.744 191.854 L 65.600 192.109 65.600 200.231 C 65.600 204.869,65.761 208.452,65.976 208.585 C 66.275 208.770,68.600 207.097,69.600 205.977 C 69.710 205.854,70.245 205.449,70.789 205.077 C 71.333 204.705,71.577 204.400,71.332 204.400 C 71.087 204.400,69.986 205.210,68.884 206.200 C 65.940 208.848,66.000 208.964,66.000 200.656 C 66.000 191.130,65.821 189.891,64.194 188.166 C 62.743 186.628,60.352 186.315,58.353 187.401 M190.955 202.392 C 190.017 202.771,188.394 204.660,188.411 205.354 C 188.416 205.599,188.721 205.317,189.087 204.727 C 191.307 201.147,196.394 202.292,197.612 206.645 C 198.280 209.028,198.316 209.030,200.817 206.790 C 202.018 205.714,202.876 204.827,202.725 204.817 C 202.573 204.808,201.853 205.352,201.125 206.027 C 199.145 207.862,198.400 208.199,198.400 207.260 C 198.400 203.735,194.287 201.046,190.955 202.392 M77.900 202.693 C 78.835 202.777,80.365 202.777,81.300 202.693 C 82.235 202.609,81.470 202.540,79.600 202.540 C 77.730 202.540,76.965 202.609,77.900 202.693 M112.800 202.649 C 98.631 205.414,91.585 221.301,98.476 234.950 C 104.706 247.291,123.600 249.909,133.200 239.761 L 135.000 237.858 132.757 239.729 C 129.906 242.107,129.411 242.135,129.772 239.900 C 129.923 238.965,130.005 234.600,129.955 230.200 C 129.839 220.016,129.838 220.360,130.021 214.147 C 130.133 210.364,130.037 208.727,129.681 208.298 C 129.249 207.777,129.379 206.400,129.860 206.400 C 130.084 206.400,130.808 206.986,133.315 209.200 L 135.354 211.000 134.015 209.306 C 130.090 204.341,120.137 201.218,112.800 202.649 M238.200 202.782 C 234.989 204.110,234.798 205.324,234.811 224.360 C 234.824 243.710,234.848 243.847,238.485 245.355 C 240.733 246.286,241.938 246.034,243.920 244.218 L 245.400 242.862 245.400 224.331 C 245.400 209.760,245.288 205.603,244.874 204.879 C 243.732 202.875,240.460 201.847,238.200 202.782 M251.214 205.174 C 250.620 206.285,250.720 210.861,251.357 211.700 C 251.824 212.316,252.664 212.400,258.320 212.400 C 261.858 212.400,264.851 212.558,264.970 212.751 C 265.158 213.055,261.912 218.468,254.340 230.478 C 253.273 232.171,252.400 233.718,252.400 233.916 C 252.400 234.114,252.068 234.577,251.662 234.944 C 250.535 235.963,249.874 238.470,250.078 240.941 C 250.383 244.610,249.524 244.400,264.200 244.400 C 279.139 244.400,278.200 244.668,278.200 240.400 C 278.200 236.304,278.403 236.400,269.751 236.400 C 265.708 236.400,262.400 236.243,262.400 236.051 C 262.400 235.859,263.255 234.315,264.300 232.620 C 265.345 230.926,266.380 229.231,266.600 228.855 C 267.512 227.295,271.069 221.559,273.205 218.200 C 277.267 211.816,278.416 207.436,276.643 205.100 C 275.780 203.963,251.825 204.033,251.214 205.174 M89.200 206.200 C 89.946 206.970,90.647 207.600,90.757 207.600 C 90.867 207.600,90.346 206.970,89.600 206.200 C 88.854 205.430,88.153 204.800,88.043 204.800 C 87.933 204.800,88.454 205.430,89.200 206.200 M188.101 207.800 C 188.105 208.680,188.187 208.993,188.283 208.495 C 188.379 207.998,188.375 207.278,188.275 206.895 C 188.175 206.513,188.096 206.920,188.101 207.800 M91.400 209.200 C 91.741 209.860,92.111 210.400,92.221 210.400 C 92.331 210.400,92.141 209.860,91.800 209.200 C 91.459 208.540,91.089 208.000,90.979 208.000 C 90.869 208.000,91.059 208.540,91.400 209.200 M121.990 211.514 C 130.149 215.619,130.078 232.450,121.884 236.707 C 114.058 240.771,106.818 234.629,106.804 223.915 C 106.791 213.408,114.021 207.504,121.990 211.514 M71.824 211.013 C 70.841 211.756,71.147 211.757,72.854 211.016 C 73.786 210.611,73.954 210.430,73.400 210.428 C 72.960 210.427,72.251 210.690,71.824 211.013 M78.138 210.983 C 78.984 211.285,80.152 211.952,80.735 212.466 L 81.794 213.400 80.998 212.459 C 80.060 211.351,78.334 210.393,77.320 210.418 C 76.924 210.427,77.292 210.682,78.138 210.983 M69.322 212.629 L 68.200 213.658 69.500 212.754 C 70.215 212.257,70.800 211.793,70.800 211.725 C 70.800 211.409,70.358 211.680,69.322 212.629 M202.208 213.364 C 200.715 214.947,199.187 217.990,199.229 219.296 C 199.247 219.847,199.559 219.353,200.028 218.033 C 200.450 216.842,201.067 215.568,201.398 215.202 C 201.729 214.836,202.000 214.408,202.000 214.249 C 202.000 214.091,202.495 213.526,203.100 212.993 C 203.705 212.461,204.041 212.020,203.847 212.013 C 203.653 212.006,202.916 212.614,202.208 213.364 M187.762 219.800 C 187.762 223.320,187.824 224.706,187.898 222.881 C 187.972 221.056,187.972 218.176,187.897 216.481 C 187.822 214.786,187.761 216.280,187.762 219.800 M67.200 215.201 C 66.709 215.890,66.418 216.784,66.518 217.301 C 66.691 218.197,66.691 218.197,66.746 217.262 C 66.775 216.746,67.172 215.801,67.627 215.162 C 68.082 214.523,68.364 214.000,68.254 214.000 C 68.144 214.000,67.670 214.540,67.200 215.201 M93.379 228.400 C 93.379 235.770,93.433 238.785,93.499 235.100 C 93.565 231.415,93.565 225.385,93.499 221.700 C 93.433 218.015,93.379 221.030,93.379 228.400 M65.853 220.036 C 65.714 220.731,65.600 225.503,65.600 230.640 L 65.600 239.979 64.300 240.657 C 63.557 241.045,61.709 241.412,59.987 241.514 C 56.377 241.728,56.030 241.458,55.599 238.095 C 55.335 236.037,55.299 235.970,55.252 237.450 C 55.163 240.278,56.717 244.052,58.263 244.756 C 60.794 245.909,64.002 244.957,65.297 242.669 C 65.692 241.971,66.513 219.526,66.167 218.886 C 66.133 218.823,65.992 219.341,65.853 220.036 M82.883 229.892 C 82.792 242.204,82.968 243.421,85.048 244.942 C 86.267 245.834,88.836 246.244,89.806 245.701 C 90.325 245.410,89.930 245.317,88.280 245.341 C 85.969 245.375,84.902 244.811,83.863 243.004 C 83.556 242.471,83.327 238.229,83.183 230.400 L 82.966 218.600 82.883 229.892 M55.369 227.600 C 55.369 232.110,55.427 233.955,55.498 231.700 C 55.570 229.445,55.570 225.755,55.498 223.500 C 55.427 221.245,55.369 223.090,55.369 227.600 M198.942 224.200 C 198.941 226.180,199.008 227.040,199.092 226.112 C 199.176 225.184,199.177 223.564,199.095 222.512 C 199.012 221.460,198.943 222.220,198.942 224.200 M199.236 228.600 C 199.214 229.549,200.721 233.012,201.024 232.709 C 201.140 232.594,200.975 231.892,200.658 231.150 C 200.340 230.407,199.895 229.350,199.668 228.800 C 199.316 227.949,199.251 227.919,199.236 228.600 M187.772 237.800 C 187.772 242.860,187.829 244.875,187.899 242.277 C 187.969 239.680,187.968 235.540,187.898 233.077 C 187.828 230.615,187.771 232.740,187.772 237.800 M91.846 243.847 C 91.035 244.863,90.939 245.120,91.501 244.769 C 91.930 244.501,92.501 243.931,92.768 243.502 C 93.610 242.155,93.020 242.375,91.846 243.847 M187.709 250.400 C 187.709 251.390,187.787 251.795,187.882 251.300 C 187.978 250.805,187.978 249.995,187.882 249.500 C 187.787 249.005,187.709 249.410,187.709 250.400 " stroke="none" fill="#ca3047" fill-rule="evenodd"></path><path id="path4" d="M356.294 146.670 C 355.806 147.515,355.580 152.740,356.020 153.012 C 356.796 153.492,366.800 153.678,366.800 153.213 C 366.800 152.986,366.539 152.800,366.220 152.800 C 365.240 152.800,364.847 151.599,365.450 150.444 C 366.457 148.515,366.180 147.750,364.300 147.270 C 361.966 146.673,356.527 146.266,356.294 146.670 M366.400 162.920 C 366.400 164.391,366.542 164.800,367.052 164.800 C 367.580 164.800,367.659 164.520,367.467 163.335 C 367.087 160.993,366.400 160.726,366.400 162.920 M246.599 183.596 C 246.939 184.669,246.953 187.263,246.624 188.439 C 246.362 189.376,246.381 189.372,247.377 188.278 C 248.883 186.625,248.663 183.693,246.985 183.050 C 246.493 182.861,246.405 182.986,246.599 183.596 M56.500 192.012 L 55.600 192.374 55.606 215.887 C 55.610 234.173,55.725 239.622,56.123 240.400 C 56.772 241.671,62.059 241.852,64.275 240.680 L 65.551 240.005 65.735 229.702 C 65.951 217.620,66.066 216.793,67.864 214.326 C 71.716 209.041,79.183 208.877,81.968 214.015 C 82.920 215.771,82.939 216.013,83.170 229.000 C 83.327 237.815,83.558 242.467,83.865 243.004 C 85.562 245.969,89.655 246.368,91.885 243.787 L 93.200 242.267 93.200 227.528 C 93.200 219.422,93.043 212.477,92.850 212.095 C 92.658 211.713,92.093 210.590,91.594 209.600 C 87.987 202.438,75.721 200.183,69.998 205.630 C 65.534 209.880,65.600 209.961,65.600 200.231 L 65.600 192.109 63.744 191.854 C 61.170 191.501,57.576 191.580,56.500 192.012 M191.800 202.756 C 190.506 203.151,189.774 203.725,188.963 204.982 C 187.990 206.489,187.494 253.854,188.461 252.895 C 189.319 252.044,189.494 247.431,189.355 229.267 C 189.217 211.157,189.479 204.898,190.260 207.600 C 190.650 208.949,190.727 208.995,192.366 208.869 C 193.671 208.769,194.431 208.979,195.625 209.769 C 196.482 210.336,197.457 210.800,197.791 210.800 C 198.198 210.800,198.400 211.190,198.400 211.976 C 198.400 213.397,197.710 213.979,197.529 212.710 C 197.382 211.681,196.068 211.249,195.554 212.061 C 194.941 213.028,195.181 213.600,196.200 213.600 C 197.406 213.600,197.453 214.245,196.594 219.000 C 195.879 222.955,195.839 226.553,196.498 227.608 C 196.916 228.278,196.848 228.685,196.066 230.158 C 194.695 232.743,194.425 235.223,195.547 234.930 C 196.179 234.764,196.482 234.947,196.751 235.654 C 197.088 236.543,197.127 236.510,197.398 235.109 C 197.650 233.804,197.780 233.668,198.439 234.021 C 198.853 234.242,199.149 234.621,199.096 234.862 C 198.927 235.632,199.769 235.605,200.800 234.807 C 201.658 234.143,201.728 233.932,201.290 233.317 C 197.459 227.931,198.090 217.510,202.516 213.084 C 203.894 211.706,204.002 211.461,203.493 210.867 C 203.179 210.500,202.783 209.840,202.614 209.400 C 202.419 208.892,202.239 208.783,202.120 209.100 C 202.017 209.375,201.782 209.600,201.597 209.600 C 201.205 209.600,202.273 207.326,202.825 206.984 C 203.031 206.857,203.200 206.298,203.200 205.743 C 203.200 204.780,203.095 204.826,200.915 206.738 C 198.301 209.031,198.280 209.030,197.612 206.645 C 196.808 203.771,194.197 202.024,191.800 202.756 M129.436 207.051 C 129.299 207.409,129.409 207.970,129.681 208.298 C 130.037 208.727,130.133 210.364,130.021 214.147 C 129.838 220.360,129.839 220.016,129.955 230.200 C 130.005 234.600,129.923 238.965,129.772 239.900 C 129.379 242.337,130.203 242.143,133.273 239.076 C 140.749 231.610,140.698 215.815,133.177 209.098 C 129.761 206.046,129.811 206.074,129.436 207.051 M6.587 228.840 C 6.441 229.302,6.518 229.878,6.760 230.120 C 7.080 230.440,7.200 230.210,7.200 229.280 C 7.200 227.803,6.969 227.637,6.587 228.840 M197.741 236.552 C 197.098 236.853,196.816 237.454,196.618 238.946 C 196.473 240.042,196.184 241.256,195.976 241.645 C 195.735 242.095,195.740 242.440,195.991 242.594 C 196.811 243.101,197.860 241.981,198.517 239.895 C 199.576 236.536,199.400 235.777,197.741 236.552 " stroke="none" fill="#622449" fill-rule="evenodd"></path></g></svg>